<?xml version="1.0" encoding="utf-8"?>
<!-- Generator: Adobe Illustrator 25.2.1, SVG Export Plug-In . SVG Version: 6.00 Build 0)  -->
<svg version="1.1" id="Layer_1" xmlns="http://www.w3.org/2000/svg" xmlns:xlink="http://www.w3.org/1999/xlink" x="0px" y="0px"
	 viewBox="0 0 101.2 101.1" style="enable-background:new 0 0 101.2 101.1;" xml:space="preserve">
<style type="text/css">
	.st0{fill:#333333;}
</style>
<g id="glC2bM.tif">
	<g>
		<path class="st0" d="M54.9,75c-5.6-0.1-10.4-2.2-14.4-6.2c-2.7-2.7-5.4-5.4-8-8c-1.1-1.1-1.1-1.9,0-3c2.6-2.6,5.3-5.3,7.9-7.9
			c1.2-1.2,1.9-1.2,3.1,0c2.7,2.7,5.3,5.3,8,8c2.2,2.2,4.8,2.2,7.1,0c8.6-8.6,17.1-17.1,25.7-25.7c2-2,2-4.7,0.1-6.7
			c-2.8-2.9-5.6-5.7-8.5-8.5c-2.1-2-4.7-2-6.8,0.1c-2.9,2.9-5.7,5.7-8.6,8.6c-1.2,1.2-1.6,1.2-3,0.4c-3.6-2-7.5-2.9-11.6-2.8
			c-0.2,0-0.4,0-0.6,0c-0.9,0.1-1.6-0.1-2-1c-0.4-0.9,0-1.5,0.7-2.1c2.4-2.4,4.8-4.8,7.2-7.2c2.5-2.5,5-5.1,7.5-7.5
			c5-4.7,11-6.5,17.8-5.2c3.8,0.7,7.2,2.5,10,5.2c3.4,3.3,6.8,6.6,10,10.1c5.1,5.5,6.3,14.4,3.1,21.3c-1.1,2.4-2.6,4.5-4.5,6.4
			c-8.5,8.5-17,17-25.5,25.5C65.4,72.9,60.1,75.1,54.9,75z"/>
		<path class="st0" d="M45.7,26.1c6.2,0.1,11,2.2,15,6.2c2.7,2.7,5.4,5.4,8,8c1.1,1.1,1.1,1.9,0,3c-2.7,2.7-5.3,5.3-8,8
			c-1.2,1.2-1.9,1.1-3.1,0c-2.6-2.6-5.3-5.3-7.9-7.9c-2.3-2.3-4.9-2.3-7.1,0C34.1,51.9,25.6,60.4,17,69c-2,2-2,4.6-0.1,6.6
			c2.8,2.9,5.7,5.8,8.6,8.6c2,1.9,4.7,1.9,6.7-0.1c2.9-2.9,5.8-5.8,8.7-8.7c1.1-1.1,1.5-1.1,2.8-0.4c3.6,2,7.5,3,11.7,2.9
			c0.2,0,0.5,0,0.7,0c0.8-0.1,1.5,0.2,1.8,1c0.3,0.8,0,1.4-0.6,2c-3.9,3.9-7.7,7.8-11.6,11.6c-1.7,1.7-3.4,3.4-5.3,4.9
			c-4.4,3.3-9.4,4.4-14.9,3.6c-4.2-0.6-7.9-2.5-10.9-5.5c-3.3-3.2-6.6-6.4-9.7-9.8C0.4,80.4-1,74.1,0.7,67.3
			c0.9-3.7,2.8-6.7,5.5-9.4c8.6-8.6,17.1-17.1,25.7-25.7C35.9,28.2,40.8,26.1,45.7,26.1z"/>
	</g>
</g>
</svg>
