<?xml version="1.0" encoding="utf-8"?>
<!-- Generator: Adobe Illustrator 25.2.1, SVG Export Plug-In . SVG Version: 6.00 Build 0)  -->
<svg version="1.1" id="Layer_1" xmlns="http://www.w3.org/2000/svg" xmlns:xlink="http://www.w3.org/1999/xlink" x="0px" y="0px"
	 viewBox="0 0 153.1 153.1" style="enable-background:new 0 0 153.1 153.1;" xml:space="preserve">
<style type="text/css">
	.st0{fill:#333333;}
	.st1{fill:#FFFFFF;}
</style>
<g>
	<circle class="st0" cx="76.6" cy="76.6" r="76.6"/>
</g>
<g>
	<circle class="st1" cx="76.6" cy="76.6" r="64.8"/>
</g>
<g>
	<g>
		<path class="st0" d="M88.4,104.4c0,7.6,0.4,13,1.2,16.2c0.2,0.8,1.9,1.8,5.1,2.8c3.1,1.1,5.2,1.6,6.1,1.6c0.5,0,0.7,1,0.7,2.9
			s-0.1,3.2-0.4,3.7c-1.2-0.1-4.9-0.4-11-0.8c-6.2-0.4-10.6-0.6-13.4-0.6c-2.8,0-7.3,0.2-13.3,0.6s-9.7,0.7-11.1,0.8
			c-0.4-0.5-0.5-1.7-0.5-3.7s0.2-2.9,0.5-2.9c1.4,0,3.7-0.5,6.7-1.6s4.7-2,4.9-2.8c0.8-3.6,1.2-8.1,1.2-13.5V82.7
			c0-6.6-1.1-11.1-3.2-13.4c-0.8-0.9-2-1.7-3.7-2.3c-1.6-0.6-3-1-4.3-1.2s-1.9-0.4-1.9-0.5c0-4.2,0.3-6.2,0.9-6.2
			c2.4,0,7.6-0.8,15.6-2.4s13.7-2.9,17-4c0.1,0,0.8-0.2,2-0.5c0.7,0,1.3,0.4,1.9,1.2c0.5,0.8,0.8,1.4,0.8,1.9
			c-0.1,0.9-0.4,2.7-0.7,5.3c-0.4,2.6-0.7,4.9-0.9,6.9s-0.4,3.8-0.4,5.6V104.4z M65.9,40.6C63.3,38,62,34.9,62,31.2s1.3-6.8,3.9-9.3
			c2.6-2.6,5.7-3.8,9.3-3.8c3.6,0,6.7,1.3,9.3,3.8s3.8,5.7,3.8,9.3s-1.3,6.8-3.8,9.3c-2.6,2.6-5.6,3.8-9.3,3.8
			C71.7,44.4,68.6,43.1,65.9,40.6z"/>
	</g>
</g>
</svg>
