<?xml version="1.0" encoding="utf-8"?>
<!-- Generator: Adobe Illustrator 25.2.1, SVG Export Plug-In . SVG Version: 6.00 Build 0)  -->
<svg version="1.1" id="Layer_1" xmlns="http://www.w3.org/2000/svg" xmlns:xlink="http://www.w3.org/1999/xlink" x="0px" y="0px"
	 viewBox="0 0 184.5 188.5" style="enable-background:new 0 0 184.5 188.5;" xml:space="preserve">
<style type="text/css">
	.st0{fill:#333333;}
	.st1{fill:#FFFFFF;}
</style>
<path class="st0" d="M161.5,188.5H23c-12.7,0-23-10.3-23-23V41.6c0-12.7,10.3-23,23-23h138.5c12.7,0,23,10.3,23,23v123.9
	C184.5,178.2,174.2,188.5,161.5,188.5z"/>
<path class="st1" d="M160.1,174.6H24.5c-5.5,0-10-4.5-10-10V42.5c0-5.5,4.5-10,10-10h135.6c5.5,0,10,4.5,10,10v122.1
	C170.1,170.1,165.6,174.6,160.1,174.6z"/>
<rect x="6.6" y="53" class="st0" width="171.3" height="21.2"/>
<rect x="33.4" y="2" class="st0" width="18.8" height="41.8"/>
<rect x="131.8" y="2" class="st0" width="19.8" height="41.8"/>
<rect x="52.2" y="84.8" class="st0" width="18.6" height="18.8"/>
<rect x="79.1" y="84.8" class="st0" width="18.6" height="18.8"/>
<rect x="106" y="84.8" class="st0" width="18.6" height="18.8"/>
<rect x="132.9" y="84.8" class="st0" width="18.6" height="18.8"/>
<rect x="52.2" y="112.8" class="st0" width="18.6" height="18.8"/>
<rect x="24" y="112.8" class="st0" width="18.6" height="18.8"/>
<rect x="79.1" y="112.8" class="st0" width="18.6" height="18.8"/>
<rect x="106" y="112.8" class="st0" width="18.6" height="18.8"/>
<rect x="52.2" y="140.7" class="st0" width="18.6" height="18.8"/>
<rect x="24" y="140.7" class="st0" width="18.6" height="18.8"/>
<rect x="79.1" y="140.7" class="st0" width="18.6" height="18.8"/>
<rect x="106" y="140.7" class="st0" width="18.6" height="18.8"/>
</svg>
