<?xml version="1.0" encoding="utf-8"?>
<!-- Generator: Adobe Illustrator 25.3.1, SVG Export Plug-In . SVG Version: 6.00 Build 0)  -->
<svg version="1.1" xmlns="http://www.w3.org/2000/svg" xmlns:xlink="http://www.w3.org/1999/xlink" x="0px" y="0px"
	 viewBox="0 0 373.4 245" style="enable-background:new 0 0 373.4 245;" xml:space="preserve">
<style type="text/css">
	.st0{fill:#FFFFFF;}
</style>
<g id="Layer_2">
</g>
<g id="Layer_1">
	<path class="st0" d="M104.7,167.9H12c-6.6,0-12,5.4-12,12V233c0,6.6,5.4,12,12,12h92.7c6.6,0,12-5.4,12-12v-53.1
		C116.7,173.3,111.3,167.9,104.7,167.9z M96.6,228.9H20.1v-44.7h76.5V228.9z"/>
	<path class="st0" d="M233.1,167.9h-92.7c-6.6,0-12,5.4-12,12V233c0,6.6,5.4,12,12,12h92.7c6.6,0,12-5.4,12-12v-53.1
		C245.1,173.3,239.7,167.9,233.1,167.9z M225,228.9h-76.5v-44.7H225V228.9z"/>
	<path class="st0" d="M233.1,0h-92.7c-6.6,0-12,5.4-12,12v53.1c0,6.6,5.4,12,12,12h92.7c6.6,0,12-5.4,12-12V12
		C245.1,5.4,239.7,0,233.1,0z M225,61h-76.5V16.3H225V61z"/>
	<path class="st0" d="M361.4,167.9h-92.7c-6.6,0-12,5.4-12,12V233c0,6.6,5.4,12,12,12h92.7c6.7,0,12-5.4,12-12v-53.1
		C373.4,173.3,368,167.9,361.4,167.9z M353.3,228.9h-76.5v-44.7h76.5V228.9z"/>
	<rect x="173.5" y="65.5" class="st0" width="26.5" height="116.3"/>
	<polygon class="st0" points="328.4,172.1 297.1,172.1 205.2,75.4 236.6,75.5 	"/>
	<polygon class="st0" points="44.3,172.1 74.8,172.1 166.7,75.4 136.1,75.5 	"/>
</g>
</svg>
