<?xml version="1.0" encoding="utf-8"?>
<!-- Generator: Adobe Illustrator 25.3.1, SVG Export Plug-In . SVG Version: 6.00 Build 0)  -->
<svg version="1.1" id="Layer_1" xmlns="http://www.w3.org/2000/svg" xmlns:xlink="http://www.w3.org/1999/xlink" x="0px" y="0px"
	 viewBox="0 0 32 32" style="enable-background:new 0 0 32 32;" xml:space="preserve">
<style type="text/css">
	.st0{fill:#333333;}
	.st1{fill:#FFFFFF;}
	.st2{fill:#B90004;}
</style>
<g>
	<path class="st0" d="M27.7,4.4v5.5H10.8V4.4H27.7 M32.1,0H6.5v14.1H32L32.1,0L32.1,0z"/>
</g>
<g>
	<rect x="8.5" y="1.8" class="st1" width="21.7" height="10.5"/>
</g>
<rect x="17.8" y="13.6" class="st0" width="2.9" height="7.5"/>
<rect x="15.5" y="21" class="st0" width="9.6" height="2.9"/>
<rect x="0.7" y="16.1" class="st1" width="20.9" height="16.3"/>
<g>
	<g>
		<polygon class="st0" points="2.5,27.6 4,26.7 20.9,26.7 22.5,27.6 		"/>
		<polygon class="st0" points="21.1,26 3.9,26 -0.1,28.3 25,28.3 		"/>
	</g>
	<g>
		<rect x="6" y="18.5" class="st0" width="13" height="5.4"/>
		<path class="st0" d="M16.9,20.6v1.1H8.1v-1.1H16.9 M21.1,16.4H3.9V26h17.2V16.4L21.1,16.4z"/>
	</g>
	<ellipse class="st2" cx="12.6" cy="26.9" rx="1" ry="0.4"/>
	<rect x="-0.1" y="28.3" class="st0" width="25.2" height="0.4"/>
	<g>
		<rect x="5.1" y="17.3" class="st1" width="14.9" height="8.1"/>
	</g>
</g>
</svg>
