<?xml version="1.0" encoding="utf-8"?>
<!-- Generator: Adobe Illustrator 25.3.1, SVG Export Plug-In . SVG Version: 6.00 Build 0)  -->
<svg version="1.1" id="Layer_1" xmlns="http://www.w3.org/2000/svg" xmlns:xlink="http://www.w3.org/1999/xlink" x="0px" y="0px"
	 viewBox="0 0 101.2 101.1" style="enable-background:new 0 0 101.2 101.1;" xml:space="preserve">
<style type="text/css">
	.st0{fill:#FFFFFF;}
</style>
<g id="glC2bM.tif">
	<g>
		<path class="st0" d="M54.6,73.2c-5.2-0.1-9.6-2-13.3-5.7c-2.5-2.5-6.6-6.6-9.1-9.1c-1-1-1-1.8,0-2.8c2.4-2.4,1.9-1.9,4.3-4.3
			c1.1-1.1,1.8-1.1,2.9,0c2.5,2.5,10,10,12.5,12.5c2,2,4.4,2,6.6,0c8-8,22.2-22.2,30.2-30.2c1.8-1.8,1.8-4.3,0.1-6.2
			c-2.6-2.7-11.9-12-14.6-14.6c-1.9-1.8-4.3-1.8-6.3,0.1c-2.7,2.7-8.7,8.7-11.4,11.4c-1.1,1.1-1.5,1.1-2.8,0.4
			c-3.2-0.6-3.7,0.5-7.5,0.6c-0.2,0-0.4,0-0.6,0c-0.8,0.1-1.5-0.1-1.8-0.9s0-1.4,0.6-1.9c2.2-2.2,4.4-4.4,6.7-6.7s4.6-4.7,6.9-6.9
			c4.6-4.3,10.2-6,16.5-4.8c3.5,0.6,6.7,2.3,9.2,4.8c3.1,3.1,6.3,6.1,9.2,9.3c4.7,5.1,5.8,13.3,2.9,19.7c-1,2.2-2.4,4.2-4.2,5.9
			C83.9,51.7,76,59.6,68.2,67.4C64.3,71.2,59.4,73.3,54.6,73.2z"/>
		<path class="st0" d="M46.1,27.9c5.7,0.1,10.2,2,13.9,5.7c2.5,2.5,7.2,7.2,9.6,9.6c1,1,1,1.8,0,2.8c-2.5,2.5-1.3,1.3-3.8,3.8
			c-1.1,1.1-1.8,1-2.9,0c-2.4-2.4-10.1-10.1-12.5-12.5c-2.1-2.1-4.5-2.1-6.6,0C36,45.2,22.1,59.1,14.1,67.1
			c-1.8,1.8-1.8,4.3-0.1,6.1c2.6,2.7,11.3,11.4,14,14c1.8,1.8,4.3,1.8,6.2-0.1c2.7-2.7,7.8-7.8,10.5-10.5c1-1,1.4-1,2.6-0.4
			c3.3,0.6,3.9-0.3,7.7-0.4c0.2,0,0.5,0,0.6,0c0.7-0.1,1.4,0.2,1.7,0.9c0.3,0.7,0,1.3-0.6,1.8c-3.6,3.6-7.1,7.2-10.7,10.7
			c-1.6,1.6-3.1,3.1-4.9,4.5c-4.1,3.1-8.7,4.1-13.8,3.3c-3.9-0.6-7.3-2.3-10.1-5.1c-3.1-3-6.1-5.9-9-9.1c-4.2-4.9-5.5-10.7-3.9-17
			c0.8-3.4,2.6-6.2,5.1-8.7c8-8,15.8-15.8,23.8-23.8C37,29.9,41.5,27.9,46.1,27.9z"/>
	</g>
</g>
</svg>
