<?xml version="1.0" encoding="utf-8"?>
<!-- Generator: Adobe Illustrator 25.3.1, SVG Export Plug-In . SVG Version: 6.00 Build 0)  -->
<svg version="1.1" id="Layer_1" xmlns="http://www.w3.org/2000/svg" xmlns:xlink="http://www.w3.org/1999/xlink" x="0px" y="0px"
	 viewBox="0 0 184.5 188.5" style="enable-background:new 0 0 184.5 188.5;" xml:space="preserve">
<style type="text/css">
	.st0{fill:#161616;}
</style>
<path class="st0" d="M161.5,18.6H23c-12.7,0-23,10.3-23,23v123.9c0,12.7,10.3,23,23,23h138.5c12.7,0,23-10.3,23-23V41.6
	C184.5,28.9,174.2,18.6,161.5,18.6z M174.1,168.6c0,5.5-4.5,10-10,10H20.5c-5.5,0-10-4.5-10-10V38.5c0-5.5,4.5-10,10-10h143.6
	c5.5,0,10,4.5,10,10V168.6z"/>
<rect x="6.6" y="56" class="st0" width="171.3" height="16.2"/>
<rect x="37.4" y="2" class="st0" width="14.8" height="41.8"/>
<rect x="131.8" y="2" class="st0" width="15.8" height="41.8"/>
<rect x="26" y="113.8" class="st0" width="17.6" height="17.8"/>
<rect x="52.7" y="113.8" class="st0" width="17.6" height="17.8"/>
<rect x="79.6" y="113.8" class="st0" width="17.6" height="17.8"/>
<rect x="106.5" y="113.8" class="st0" width="17.6" height="17.8"/>
<rect x="26" y="141.8" class="st0" width="17.6" height="17.8"/>
<rect x="52.7" y="141.8" class="st0" width="17.6" height="17.8"/>
<rect x="79.6" y="141.8" class="st0" width="17.6" height="17.8"/>
<rect x="106.5" y="141.8" class="st0" width="17.6" height="17.8"/>
<rect x="133.4" y="113.8" class="st0" width="17.6" height="17.8"/>
<rect x="52.7" y="85.3" class="st0" width="17.6" height="17.8"/>
<rect x="79.6" y="85.3" class="st0" width="17.6" height="17.8"/>
<rect x="106.5" y="85.3" class="st0" width="17.6" height="17.8"/>
<rect x="133.4" y="85.3" class="st0" width="17.6" height="17.8"/>
</svg>
